# xmcd CD database file
#
# Track frame offsets:
#	150
#	27525
#	45000
#	61575
#	82275
#	103088
#	122176
#	143926
#	157876
#	175576
#	192676
#	206851
#	226726
#	243151
#	261076
#	278176
#	299476
#	319426
#
# Disc length: 4533 seconds
#
# Revision: 2
# Processed by: cddbd v1.5.2PL0 Copyright (c) Steve Scherf et al.
# Submitted via: CDex 1.51
#
DISCID=0a11b312
DTITLE=Various Artist - 永遠最愛 Leslie 原裝日語金曲
DYEAR=2003
DGENRE=Oldies
TTITLE0=風繼續吹原曲 - 山口百惠
TTITLE1=有誰共鳴原曲 - 谷村新司
TTITLE2=Monica 原曲 - 吉川晃司
TTITLE3=不羈的風原曲 - 大澤譽志幸
TTITLE4=H2O 原曲 - 澤田研二
TTITLE5=愛慕原曲 - 西城秀樹
TTITLE6=共同渡過原曲 - Cho Yong Pil
TTITLE7=戀愛交叉原曲 - 鄉裕美
TTITLE8=少女心事原曲 - 清水宏次郎
TTITLE9=第一次原曲 - 中森明菜
TTITLE10=柔情蜜意原曲 - 鄉裕美
TTITLE11=愛火原曲 - 上田正樹
TTITLE12=拒絕再玩原曲 - 玉置浩二
TTITLE13=藍色憂鬱原曲 - 鄉裕美
TTITLE14=烈火邊緣原曲 - 西城秀樹
TTITLE15=你是我一半原曲 - 中森明菜
TTITLE16=迷惑我原曲 - 小林明子
TTITLE17=愛的抉擇原曲 - Stardust Revue
EXTD=YEAR: 2003
EXTT0=
EXTT1=
EXTT2=
EXTT3=
EXTT4=
EXTT5=
EXTT6=
EXTT7=
EXTT8=
EXTT9=
EXTT10=
EXTT11=
EXTT12=
EXTT13=
EXTT14=
EXTT15=
EXTT16=
EXTT17=
PLAYORDER=
